<svg width="40" height="40" viewBox="0 0 40 40" fill="none" xmlns="http://www.w3.org/2000/svg">
<mask id="mask0_86_1849" style="mask-type:alpha" maskUnits="userSpaceOnUse" x="8" y="8" width="24" height="24">
<rect x="8" y="8" width="24" height="24" fill="#D9D9D9"/>
</mask>
<g mask="url(#mask0_86_1849)">
<path d="M27.4844 28.1537L21.2229 21.8922C20.7229 22.3179 20.1479 22.6474 19.4979 22.8807C18.8479 23.1141 18.1947 23.2307 17.5384 23.2307C15.9367 23.2307 14.5811 22.6763 13.4716 21.5675C12.3623 20.4586 11.8076 19.1039 11.8076 17.5032C11.8076 15.9024 12.362 14.5465 13.4709 13.4355C14.5797 12.3246 15.9345 11.7692 17.5351 11.7692C19.136 11.7692 20.4919 12.3239 21.6029 13.4332C22.7137 14.5427 23.2691 15.8983 23.2691 17.5C23.2691 18.1948 23.146 18.8672 22.8999 19.5172C22.6537 20.1672 22.3306 20.723 21.9306 21.1845L28.1921 27.4462L27.4844 28.1537ZM17.5384 22.2307C18.8652 22.2307 19.9854 21.774 20.8989 20.8605C21.8124 19.9471 22.2691 18.827 22.2691 17.5C22.2691 16.173 21.8124 15.0528 20.8989 14.1395C19.9854 13.226 18.8652 12.7692 17.5384 12.7692C16.2114 12.7692 15.0912 13.226 14.1779 14.1395C13.2644 15.0528 12.8076 16.173 12.8076 17.5C12.8076 18.827 13.2644 19.9471 14.1779 20.8605C15.0912 21.774 16.2114 22.2307 17.5384 22.2307Z" fill="#1C1B1F"/>
</g>
</svg>
