<svg width="18" height="18" viewBox="0 0 18 18" fill="none" xmlns="http://www.w3.org/2000/svg">
<rect width="18" height="18" rx="9" fill="white" fill-opacity="0.1"/>
<mask id="mask0_64_1747" style="mask-type:alpha" maskUnits="userSpaceOnUse" x="4" y="4" width="10" height="10">
<rect x="4.5" y="4.5" width="9" height="9" fill="#D9D9D9"/>
</mask>
<g mask="url(#mask0_64_1747)">
<mask id="mask1_64_1747" style="mask-type:alpha" maskUnits="userSpaceOnUse" x="3" y="2" width="12" height="13">
<rect x="3" y="2.5" width="12" height="12" fill="#D9D9D9"/>
</mask>
<g mask="url(#mask1_64_1747)">
<path d="M5.80775 12.5C5.57758 12.5 5.38542 12.4229 5.23125 12.2688C5.07708 12.1146 5 11.9224 5 11.6923V5.30775C5 5.07758 5.07708 4.88542 5.23125 4.73125C5.38542 4.57708 5.57758 4.5 5.80775 4.5H10.7885L13 6.7115V11.6923C13 11.9224 12.9229 12.1146 12.7688 12.2688C12.6146 12.4229 12.4224 12.5 12.1923 12.5H5.80775ZM5.80775 12H12.1923C12.282 12 12.3558 11.9712 12.4135 11.9135C12.4712 11.8558 12.5 11.782 12.5 11.6923V7H10.5V5H5.80775C5.718 5 5.64425 5.02883 5.5865 5.0865C5.52883 5.14425 5.5 5.218 5.5 5.30775V11.6923C5.5 11.782 5.52883 11.8558 5.5865 11.9135C5.64425 11.9712 5.718 12 5.80775 12ZM6.75 10.5H11.25V10H6.75V10.5ZM6.75 7H9V6.5H6.75V7ZM6.75 8.75H11.25V8.25H6.75V8.75Z" fill="#4D5869"/>
</g>
</g>
<rect x="0.25" y="0.25" width="17.5" height="17.5" rx="8.75" stroke="#4D5869" stroke-width="0.5"/>
</svg>
